<svg xmlns="http://www.w3.org/2000/svg" width="120" height="40" viewBox="0 0 120 40">
  <rect width="120" height="40" rx="5" fill="#000"/>
  <text x="35" y="15" font-family="Arial" font-size="9" fill="#fff">Download on the</text>
  <text x="35" y="28" font-family="Arial" font-size="14" font-weight="bold" fill="#fff">App Store</text>
  <path d="M15 10c-.83 0-1.5.67-1.5 1.5v2.09c0 .42.17.82.46 1.12l2.55 2.55c.3.3.7.46 1.12.46h2.09c.83 0 1.5-.67 1.5-1.5v-4.72c0-.83-.67-1.5-1.5-1.5h-4.72zm4 8.5h-2.09c-.7 0-1.37-.28-1.87-.78l-2.55-2.55c-.5-.5-.78-1.17-.78-1.87v-2.09c0-1.38 1.12-2.5 2.5-2.5h4.72c1.38 0 2.5 1.12 2.5 2.5v4.72c0 1.38-1.12 2.5-2.5 2.5z" fill="#fff" transform="translate(2 8)"/>
</svg>